<svg id="mermaid-_r_3v_" width="843.0018310546875" xmlns="http://www.w3.org/2000/svg" class="classDiagram" height="728.125" viewBox="0 0 843.0018310546875 728.125" role="graphics-document document" aria-roledescription="class"><style>#mermaid-_r_3v_{font-family:"trebuchet ms",verdana,arial,sans-serif;font-size:16px;fill:#000000;}@keyframes edge-animation-frame{from{stroke-dashoffset:0;}}@keyframes dash{to{stroke-dashoffset:0;}}#mermaid-_r_3v_ .edge-animation-slow{stroke-dasharray:9,5!important;stroke-dashoffset:900;animation:dash 50s linear infinite;stroke-linecap:round;}#mermaid-_r_3v_ .edge-animation-fast{stroke-dasharray:9,5!important;stroke-dashoffset:900;animation:dash 20s linear infinite;stroke-linecap:round;}#mermaid-_r_3v_ .error-icon{fill:#552222;}#mermaid-_r_3v_ .error-text{fill:#552222;stroke:#552222;}#mermaid-_r_3v_ .edge-thickness-normal{stroke-width:1px;}#mermaid-_r_3v_ .edge-thickness-thick{stroke-width:3.5px;}#mermaid-_r_3v_ .edge-pattern-solid{stroke-dasharray:0;}#mermaid-_r_3v_ .edge-thickness-invisible{stroke-width:0;fill:none;}#mermaid-_r_3v_ .edge-pattern-dashed{stroke-dasharray:3;}#mermaid-_r_3v_ .edge-pattern-dotted{stroke-dasharray:2;}#mermaid-_r_3v_ .marker{fill:#666;stroke:#666;}#mermaid-_r_3v_ .marker.cross{stroke:#666;}#mermaid-_r_3v_ svg{font-family:"trebuchet ms",verdana,arial,sans-serif;font-size:16px;}#mermaid-_r_3v_ p{margin:0;}#mermaid-_r_3v_ g.classGroup text{fill:#999;stroke:none;font-family:"trebuchet ms",verdana,arial,sans-serif;font-size:10px;}#mermaid-_r_3v_ g.classGroup text .title{font-weight:bolder;}#mermaid-_r_3v_ .nodeLabel,#mermaid-_r_3v_ .edgeLabel{color:#111111;}#mermaid-_r_3v_ .edgeLabel .label rect{fill:#eee;}#mermaid-_r_3v_ .label text{fill:#111111;}#mermaid-_r_3v_ .labelBkg{background:#eee;}#mermaid-_r_3v_ .edgeLabel .label span{background:#eee;}#mermaid-_r_3v_ .classTitle{font-weight:bolder;}#mermaid-_r_3v_ .node rect,#mermaid-_r_3v_ .node circle,#mermaid-_r_3v_ .node ellipse,#mermaid-_r_3v_ .node polygon,#mermaid-_r_3v_ .node path{fill:#eee;stroke:#999;stroke-width:1px;}#mermaid-_r_3v_ .divider{stroke:#999;stroke-width:1;}#mermaid-_r_3v_ g.clickable{cursor:pointer;}#mermaid-_r_3v_ g.classGroup rect{fill:#eee;stroke:#999;}#mermaid-_r_3v_ g.classGroup line{stroke:#999;stroke-width:1;}#mermaid-_r_3v_ .classLabel .box{stroke:none;stroke-width:0;fill:#eee;opacity:0.5;}#mermaid-_r_3v_ .classLabel .label{fill:#999;font-size:10px;}#mermaid-_r_3v_ .relation{stroke:#666;stroke-width:1;fill:none;}#mermaid-_r_3v_ .dashed-line{stroke-dasharray:3;}#mermaid-_r_3v_ .dotted-line{stroke-dasharray:1 2;}#mermaid-_r_3v_ #compositionStart,#mermaid-_r_3v_ .composition{fill:#666!important;stroke:#666!important;stroke-width:1;}#mermaid-_r_3v_ #compositionEnd,#mermaid-_r_3v_ .composition{fill:#666!important;stroke:#666!important;stroke-width:1;}#mermaid-_r_3v_ #dependencyStart,#mermaid-_r_3v_ .dependency{fill:#666!important;stroke:#666!important;stroke-width:1;}#mermaid-_r_3v_ #dependencyStart,#mermaid-_r_3v_ .dependency{fill:#666!important;stroke:#666!important;stroke-width:1;}#mermaid-_r_3v_ #extensionStart,#mermaid-_r_3v_ .extension{fill:transparent!important;stroke:#666!important;stroke-width:1;}#mermaid-_r_3v_ #extensionEnd,#mermaid-_r_3v_ .extension{fill:transparent!important;stroke:#666!important;stroke-width:1;}#mermaid-_r_3v_ #aggregationStart,#mermaid-_r_3v_ .aggregation{fill:transparent!important;stroke:#666!important;stroke-width:1;}#mermaid-_r_3v_ #aggregationEnd,#mermaid-_r_3v_ .aggregation{fill:transparent!important;stroke:#666!important;stroke-width:1;}#mermaid-_r_3v_ #lollipopStart,#mermaid-_r_3v_ .lollipop{fill:#eee!important;stroke:#666!important;stroke-width:1;}#mermaid-_r_3v_ #lollipopEnd,#mermaid-_r_3v_ .lollipop{fill:#eee!important;stroke:#666!important;stroke-width:1;}#mermaid-_r_3v_ .edgeTerminals{font-size:11px;line-height:initial;}#mermaid-_r_3v_ .classTitleText{text-anchor:middle;font-size:18px;fill:#000000;}#mermaid-_r_3v_ .label-icon{display:inline-block;height:1em;overflow:visible;vertical-align:-0.125em;}#mermaid-_r_3v_ .node .label-icon path{fill:currentColor;stroke:revert;stroke-width:revert;}#mermaid-_r_3v_ :root{--mermaid-font-family:"trebuchet ms",verdana,arial,sans-serif;}</style><g><defs><marker id="mermaid-_r_3v__class-aggregationStart" class="marker aggregation class" refX="18" refY="7" markerWidth="190" markerHeight="240" orient="auto"><path d="M 18,7 L9,13 L1,7 L9,1 Z"></path></marker></defs><defs><marker id="mermaid-_r_3v__class-aggregationEnd" class="marker aggregation class" refX="1" refY="7" markerWidth="20" markerHeight="28" orient="auto"><path d="M 18,7 L9,13 L1,7 L9,1 Z"></path></marker></defs><defs><marker id="mermaid-_r_3v__class-extensionStart" class="marker extension class" refX="18" refY="7" markerWidth="190" markerHeight="240" orient="auto"><path d="M 1,7 L18,13 V 1 Z"></path></marker></defs><defs><marker id="mermaid-_r_3v__class-extensionEnd" class="marker extension class" refX="1" refY="7" markerWidth="20" markerHeight="28" orient="auto"><path d="M 1,1 V 13 L18,7 Z"></path></marker></defs><defs><marker id="mermaid-_r_3v__class-compositionStart" class="marker composition class" refX="18" refY="7" markerWidth="190" markerHeight="240" orient="auto"><path d="M 18,7 L9,13 L1,7 L9,1 Z"></path></marker></defs><defs><marker id="mermaid-_r_3v__class-compositionEnd" class="marker composition class" refX="1" refY="7" markerWidth="20" markerHeight="28" orient="auto"><path d="M 18,7 L9,13 L1,7 L9,1 Z"></path></marker></defs><defs><marker id="mermaid-_r_3v__class-dependencyStart" class="marker dependency class" refX="6" refY="7" markerWidth="190" markerHeight="240" orient="auto"><path d="M 5,7 L9,13 L1,7 L9,1 Z"></path></marker></defs><defs><marker id="mermaid-_r_3v__class-dependencyEnd" class="marker dependency class" refX="13" refY="7" markerWidth="20" markerHeight="28" orient="auto"><path d="M 18,7 L9,13 L14,7 L9,1 Z"></path></marker></defs><defs><marker id="mermaid-_r_3v__class-lollipopStart" class="marker lollipop class" refX="13" refY="7" markerWidth="190" markerHeight="240" orient="auto"><circle stroke="black" fill="transparent" cx="7" cy="7" r="6"></circle></marker></defs><defs><marker id="mermaid-_r_3v__class-lollipopEnd" class="marker lollipop class" refX="1" refY="7" markerWidth="190" markerHeight="240" orient="auto"><circle stroke="black" fill="transparent" cx="7" cy="7" r="6"></circle></marker></defs><g class="root"><g class="clusters"></g><g class="edgePaths"><path d="M204.961,148.009L214.336,156.236C223.711,164.464,242.46,180.92,257.991,194.55C273.522,208.181,285.835,218.986,291.991,224.389L298.147,229.792" id="id_Book_BookCopy_1" class="edge-thickness-normal edge-pattern-solid relation" style=";;;" data-edge="true" data-et="edge" data-id="id_Book_BookCopy_1" data-points="W3sieCI6MjA0Ljk2MDg4OTgxNjI4NDE4LCJ5IjoxNDguMDA4NzE2MTM5MDU4NX0seyJ4IjoyNjEuMjA5OTM3MDk1NjQyMSwieSI6MTk3LjM3NX0seyJ4IjozMDIuNjU2NDI1MTU5MjM4OSwieSI6MjMzLjc1fV0=" marker-end="url(#mermaid-_r_3v__class-dependencyEnd)"></path><path d="M98.273,386.75L98.273,392.813C98.273,398.875,98.273,411,152.629,438.142C206.985,465.285,315.696,507.444,370.051,528.524L424.407,549.604" id="id_Member_Loan_2" class="edge-thickness-normal edge-pattern-solid relation" style=";;;" data-edge="true" data-et="edge" data-id="id_Member_Loan_2" data-points="W3sieCI6OTguMjczNDI5ODcwNjA1NDcsInkiOjM4Ni43NX0seyJ4Ijo5OC4yNzM0Mjk4NzA2MDU0NywieSI6NDIzLjEyNX0seyJ4Ijo0MzAuMDAwOTg0MTkxODk0NTMsInkiOjU1MS43NzM0NjYzMTkwMTR9XQ==" marker-end="url(#mermaid-_r_3v__class-dependencyEnd)"></path><path d="M389.822,386.75L389.822,392.813C389.822,398.875,389.822,411,395.88,424.366C401.938,437.732,414.054,452.338,420.112,459.642L426.17,466.945" id="id_BookCopy_Loan_3" class="edge-thickness-normal edge-pattern-solid relation" style=";;;" data-edge="true" data-et="edge" data-id="id_BookCopy_Loan_3" data-points="W3sieCI6Mzg5LjgyMjIzNTEwNzQyMTksInkiOjM4Ni43NX0seyJ4IjozODkuODIyMjM1MTA3NDIxOSwieSI6NDIzLjEyNX0seyJ4Ijo0MzAuMDAwOTg0MTkxODk0NTMsInkiOjQ3MS41NjMyNDYyMjkwNjMyfV0=" marker-end="url(#mermaid-_r_3v__class-dependencyEnd)"></path><path d="M686.999,154.063L687.638,161.281C688.278,168.5,689.557,182.938,690.196,196.375C690.836,209.813,690.836,222.25,690.836,228.469L690.836,234.688" id="id_LibraryService_Catalog_4" class="edge-thickness-normal edge-pattern-solid relation" style=";;;" data-edge="true" data-et="edge" data-id="id_LibraryService_Catalog_4" data-points="W3sieCI6Njg2Ljk5ODYwNjEyNzM2MTksInkiOjE1NC4wNjI1fSx7IngiOjY5MC44MzU4MTU0Mjk2ODc1LCJ5IjoxOTcuMzc1fSx7IngiOjY5MC44MzU4MTU0Mjk2ODc1LCJ5IjoyNDAuNjg3NX1d" marker-end="url(#mermaid-_r_3v__class-dependencyEnd)"></path><path d="M770.035,154.063L779.291,161.281C788.548,168.5,807.061,182.938,816.318,208.969C825.574,235,825.574,272.625,825.574,310.25C825.574,347.875,825.574,385.5,793.213,422.445C760.852,459.39,696.129,495.655,663.768,513.788L631.407,531.92" id="id_LibraryService_Loan_5" class="edge-thickness-normal edge-pattern-solid relation" style=";;;" data-edge="true" data-et="edge" data-id="id_LibraryService_Loan_5" data-points="W3sieCI6NzcwLjAzNDk0MTczOTgxNDMsInkiOjE1NC4wNjI1fSx7IngiOjgyNS41NzQwMjAzODU3NDIyLCJ5IjoxOTcuMzc1fSx7IngiOjgyNS41NzQwMjAzODU3NDIyLCJ5IjozMTAuMjV9LHsieCI6ODI1LjU3NDAyMDM4NTc0MjIsInkiOjQyMy4xMjV9LHsieCI6NjI2LjE3MjcwNjYwNDAwMzksInkiOjUzNC44NTMxOTk2ODU3NzZ9XQ==" marker-end="url(#mermaid-_r_3v__class-dependencyEnd)"></path><path d="M588.082,154.063L578.456,161.281C568.831,168.5,549.58,182.938,533.187,195.592C516.795,208.247,503.261,219.12,496.494,224.556L489.727,229.992" id="id_LibraryService_BookCopy_6" class="edge-thickness-normal edge-pattern-solid relation" style=";;;" data-edge="true" data-et="edge" data-id="id_LibraryService_BookCopy_6" data-points="W3sieCI6NTg4LjA4MTYzMDc5NTUwMSwieSI6MTU0LjA2MjV9LHsieCI6NTMwLjMyOTAyNTI2ODU1NDcsInkiOjE5Ny4zNzV9LHsieCI6NDg1LjA0OTQyODQzOTIxOTUsInkiOjIzMy43NX1d" marker-end="url(#mermaid-_r_3v__class-dependencyEnd)"></path><path d="M526.67,114.371L455.27,128.205C383.871,142.039,241.072,169.707,169.673,188.603C98.273,207.5,98.273,217.625,98.273,222.688L98.273,227.75" id="id_LibraryService_Member_7" class="edge-thickness-normal edge-pattern-solid relation" style=";;;" data-edge="true" data-et="edge" data-id="id_LibraryService_Member_7" data-points="W3sieCI6NTI2LjY2OTg0NTU4MTA1NDcsInkiOjExNC4zNzA1OTI4ODA3MzM4Mn0seyJ4Ijo5OC4yNzM0Mjk4NzA2MDU0NywieSI6MTk3LjM3NX0seyJ4Ijo5OC4yNzM0Mjk4NzA2MDU0NywieSI6MjMzLjc1fV0=" marker-end="url(#mermaid-_r_3v__class-dependencyEnd)"></path></g><g class="edgeLabels"><g><rect class="background" style="stroke: none"></rect></g><g><rect class="background" style="stroke: none"></rect></g><g><rect class="background" style="stroke: none"></rect></g><g><rect class="background" style="stroke: none"></rect></g><g class="edgeLabel" transform="translate(253.80866, 190.87936)"><g class="label" data-id="id_Book_BookCopy_1" transform="translate(-14.324209213256836, -11.375)"><g><rect class="background" style="" x="-2" y="-0.9999985694885254" width="28.648418426513672" height="22.75"></rect><text y="-10.1" style=""><tspan class="text-outer-tspan" x="0" y="-0.1em" dy="1.1em"><tspan font-style="normal" class="text-inner-tspan" font-weight="normal">has</tspan></tspan></text></g></g></g><g class="edgeLabel" transform="translate(98.27342987060547, 423.125)"><g class="label" data-id="id_Member_Loan_2" transform="translate(-30.964815139770508, -11.375)"><g><rect class="background" style="" x="-2" y="-0.9999985694885254" width="61.929630279541016" height="22.75"></rect><text y="-10.1" style=""><tspan class="text-outer-tspan" x="0" y="-0.1em" dy="1.1em"><tspan font-style="normal" class="text-inner-tspan" font-weight="normal">borrows</tspan></tspan></text></g></g></g><g class="edgeLabel" transform="translate(389.8222351074219, 423.125)"><g class="label" data-id="id_BookCopy_Loan_3" transform="translate(-40.546871185302734, -11.375)"><g><rect class="background" style="" x="-2" y="-0.9999985694885254" width="81.09373474121094" height="22.75"></rect><text y="-10.1" style=""><tspan class="text-outer-tspan" x="0" y="-0.1em" dy="1.1em"><tspan font-style="normal" class="text-inner-tspan" font-weight="normal">tracked</tspan><tspan font-style="normal" class="text-inner-tspan" font-weight="normal"> by</tspan></tspan></text></g></g></g><g class="edgeLabel"><g class="label" data-id="id_LibraryService_Catalog_4" transform="translate(0, 0)"><text y="-10.1"><tspan class="text-outer-tspan" x="0" y="-0.1em" dy="1.1em"></tspan></text></g></g><g class="edgeLabel"><g class="label" data-id="id_LibraryService_Loan_5" transform="translate(0, 0)"><text y="-10.1"><tspan class="text-outer-tspan" x="0" y="-0.1em" dy="1.1em"></tspan></text></g></g><g class="edgeLabel"><g class="label" data-id="id_LibraryService_BookCopy_6" transform="translate(0, 0)"><text y="-10.1"><tspan class="text-outer-tspan" x="0" y="-0.1em" dy="1.1em"></tspan></text></g></g><g class="edgeLabel"><g class="label" data-id="id_LibraryService_Member_7" transform="translate(0, 0)"><text y="-10.1"><tspan class="text-outer-tspan" x="0" y="-0.1em" dy="1.1em"></tspan></text></g></g><g class="edgeTerminals" transform="translate(208.21937492457022, 170.82608430047378)"><g class="inner" transform="translate(-2.890625, -6.25)"><text style=""><tspan xml:space="preserve" dy="1em" x="0" class="row">1</tspan></text></g></g><g class="edgeTerminals" transform="translate(83.27342993530274, 404.2500000554548)"><g class="inner" transform="translate(-2.890625, -6.25)"><text style=""><tspan xml:space="preserve" dy="1em" x="0" class="row">1</tspan></text></g></g><g class="edgeTerminals" transform="translate(374.8222375537111, 404.25000209681923)"><g class="inner" transform="translate(-2.890625, -6.25)"><text style=""><tspan xml:space="preserve" dy="1em" x="0" class="row">1</tspan></text></g></g><g class="edgeTerminals" transform="translate(294.39794269603675, 205.93263388564566)"><g class="inner" transform="translate(-13.585195541381836, -6.25)"></g><text style=""><tspan xml:space="preserve" dy="1em" x="0" class="row">many</tspan></text></g><g class="edgeTerminals" transform="translate(414.1086115643491, 526.460754492405)"><g class="inner" transform="translate(-13.585195541381836, -6.25)"></g><text style=""><tspan xml:space="preserve" dy="1em" x="0" class="row">many</tspan></text></g><g class="edgeTerminals" transform="translate(425.37353414339617, 443.51739624158)"><g class="inner" transform="translate(-9.814453125, -6.25)"></g><text style=""><tspan xml:space="preserve" dy="1em" x="0" class="row">0..1</tspan></text></g></g><g class="nodes"><g class="node default" id="classId-Book-6" transform="translate(132.5976390838623, 84.5)"><g class="basic label-container"><path d="M-72.36325073242188 -76.5 L72.36325073242188 -76.5 L72.36325073242188 76.5 L-72.36325073242188 76.5" stroke="none" stroke-width="0" fill="#eee" style=""></path><path d="M-72.36325073242188 -76.5 C-39.833779698808506 -76.5, -7.304308665195137 -76.5, 72.36325073242188 -76.5 M-72.36325073242188 -76.5 C-18.33400897183509 -76.5, 35.695232788751696 -76.5, 72.36325073242188 -76.5 M72.36325073242188 -76.5 C72.36325073242188 -22.151444255881927, 72.36325073242188 32.197111488236146, 72.36325073242188 76.5 M72.36325073242188 -76.5 C72.36325073242188 -24.548052212944093, 72.36325073242188 27.403895574111814, 72.36325073242188 76.5 M72.36325073242188 76.5 C40.72930481864036 76.5, 9.095358904858841 76.5, -72.36325073242188 76.5 M72.36325073242188 76.5 C21.526553325397828 76.5, -29.31014408162622 76.5, -72.36325073242188 76.5 M-72.36325073242188 76.5 C-72.36325073242188 27.42153129102786, -72.36325073242188 -21.656937417944278, -72.36325073242188 -76.5 M-72.36325073242188 76.5 C-72.36325073242188 36.533083259758584, -72.36325073242188 -3.433833480482832, -72.36325073242188 -76.5" stroke="#999" stroke-width="1.3" fill="none" stroke-dasharray="0 0" style=""></path></g><g class="annotation-group text" transform="translate(0, -56.5)"></g><g class="label-group text" transform="translate(-18.816394805908203, -56.5)"><g class="label" style="font-weight: bolder" transform="translate(0,-9.375)"><g><rect class="background" style="stroke: none"></rect><text y="-10.1" style=""><tspan class="text-outer-tspan" x="0" y="-0.1em" dy="1.1em" font-weight=""><tspan font-style="normal" class="text-inner-tspan" font-weight="">Book</tspan></tspan></text></g></g></g><g class="members-group text" transform="translate(-60.363250732421875, -13.75)"><g class="label" style="" transform="translate(0,-9.375)"><g><rect class="background" style="stroke: none"></rect><text y="-10.1" style=""><tspan class="text-outer-tspan" x="0" y="-0.1em" dy="1.1em"><tspan font-style="normal" class="text-inner-tspan" font-weight="normal">+string</tspan><tspan font-style="normal" class="text-inner-tspan" font-weight="normal"> isbn</tspan></tspan></text></g></g><g class="label" style="" transform="translate(0,12.375)"><g><rect class="background" style="stroke: none"></rect><text y="-10.1" style=""><tspan class="text-outer-tspan" x="0" y="-0.1em" dy="1.1em"><tspan font-style="normal" class="text-inner-tspan" font-weight="normal">+string</tspan><tspan font-style="normal" class="text-inner-tspan" font-weight="normal"> title</tspan></tspan></text></g></g><g class="label" style="" transform="translate(0,34.125)"><g><rect class="background" style="stroke: none"></rect><text y="-10.1" style=""><tspan class="text-outer-tspan" x="0" y="-0.1em" dy="1.1em"><tspan font-style="normal" class="text-inner-tspan" font-weight="normal">+string</tspan><tspan font-style="normal" class="text-inner-tspan" font-weight="normal"> author</tspan></tspan></text></g></g></g><g class="methods-group text" transform="translate(-60.363250732421875, 72.5)"></g><g class="divider" style=""><path d="M-72.36325073242188 -33.75 C-15.326710279155535 -33.75, 41.709830174110806 -33.75, 72.36325073242188 -33.75 M-72.36325073242188 -33.75 C-37.428185108327085 -33.75, -2.4931194842322952 -33.75, 72.36325073242188 -33.75" stroke="#999" stroke-width="1.3" fill="none" stroke-dasharray="0 0" style=""></path></g><g class="divider" style=""><path d="M-72.36325073242188 52.5 C-17.11883154252252 52.5, 38.12558764737683 52.5, 72.36325073242188 52.5 M-72.36325073242188 52.5 C-19.072099495463064 52.5, 34.21905174149575 52.5, 72.36325073242188 52.5" stroke="#999" stroke-width="1.3" fill="none" stroke-dasharray="0 0" style=""></path></g></g><g class="node default" id="classId-BookCopy-7" transform="translate(389.8222351074219, 310.25)"><g class="basic label-container"><path d="M-151.27537536621094 -76.5 L151.27537536621094 -76.5 L151.27537536621094 76.5 L-151.27537536621094 76.5" stroke="none" stroke-width="0" fill="#eee" style=""></path><path d="M-151.27537536621094 -76.5 C-33.97201529912557 -76.5, 83.33134476795979 -76.5, 151.27537536621094 -76.5 M-151.27537536621094 -76.5 C-33.654566098868116 -76.5, 83.9662431684747 -76.5, 151.27537536621094 -76.5 M151.27537536621094 -76.5 C151.27537536621094 -25.585090779806592, 151.27537536621094 25.329818440386816, 151.27537536621094 76.5 M151.27537536621094 -76.5 C151.27537536621094 -33.37869995089777, 151.27537536621094 9.742600098204463, 151.27537536621094 76.5 M151.27537536621094 76.5 C64.46056645624006 76.5, -22.35424245373082 76.5, -151.27537536621094 76.5 M151.27537536621094 76.5 C67.7679273870025 76.5, -15.739520592205935 76.5, -151.27537536621094 76.5 M-151.27537536621094 76.5 C-151.27537536621094 26.67082401507824, -151.27537536621094 -23.158351969843523, -151.27537536621094 -76.5 M-151.27537536621094 76.5 C-151.27537536621094 34.18506859039668, -151.27537536621094 -8.129862819206636, -151.27537536621094 -76.5" stroke="#999" stroke-width="1.3" fill="none" stroke-dasharray="0 0" style=""></path></g><g class="annotation-group text" transform="translate(0, -56.5)"></g><g class="label-group text" transform="translate(-37.281219482421875, -56.5)"><g class="label" style="font-weight: bolder" transform="translate(0,-9.375)"><g><rect class="background" style="stroke: none"></rect><text y="-10.1" style=""><tspan class="text-outer-tspan" x="0" y="-0.1em" dy="1.1em" font-weight=""><tspan font-style="normal" class="text-inner-tspan" font-weight="">BookCopy</tspan></tspan></text></g></g></g><g class="members-group text" transform="translate(-139.27537536621094, -13.75)"><g class="label" style="" transform="translate(0,-9.375)"><g><rect class="background" style="stroke: none"></rect><text y="-10.1" style=""><tspan class="text-outer-tspan" x="0" y="-0.1em" dy="1.1em"><tspan font-style="normal" class="text-inner-tspan" font-weight="normal">+string</tspan><tspan font-style="normal" class="text-inner-tspan" font-weight="normal"> copyId</tspan></tspan></text></g></g><g class="label" style="" transform="translate(0,12.375)"><g><rect class="background" style="stroke: none"></rect><text y="-10.1" style=""><tspan class="text-outer-tspan" x="0" y="-0.1em" dy="1.1em"><tspan font-style="normal" class="text-inner-tspan" font-weight="normal">+string</tspan><tspan font-style="normal" class="text-inner-tspan" font-weight="normal"> status</tspan><tspan font-style="normal" class="text-inner-tspan" font-weight="normal"> //</tspan><tspan font-style="normal" class="text-inner-tspan" font-weight="normal"> Available,</tspan><tspan font-style="normal" class="text-inner-tspan" font-weight="normal"> Issued</tspan></tspan></text></g></g><g class="label" style="" transform="translate(0,34.125)"><g><rect class="background" style="stroke: none"></rect><text y="-10.1" style=""><tspan class="text-outer-tspan" x="0" y="-0.1em" dy="1.1em"><tspan font-style="normal" class="text-inner-tspan" font-weight="normal">+string</tspan><tspan font-style="normal" class="text-inner-tspan" font-weight="normal"> isbn</tspan></tspan></text></g></g></g><g class="methods-group text" transform="translate(-139.27537536621094, 72.5)"></g><g class="divider" style=""><path d="M-151.27537536621094 -33.75 C-55.4061988363333 -33.75, 40.46297769354433 -33.75, 151.27537536621094 -33.75 M-151.27537536621094 -33.75 C-48.02300161747337 -33.75, 55.2293721312642 -33.75, 151.27537536621094 -33.75" stroke="#999" stroke-width="1.3" fill="none" stroke-dasharray="0 0" style=""></path></g><g class="divider" style=""><path d="M-151.27537536621094 52.5 C-77.06950151060897 52.5, -2.863627655007008 52.5, 151.27537536621094 52.5 M-151.27537536621094 52.5 C-30.545932101805448 52.5, 90.18351116260004 52.5, 151.27537536621094 52.5" stroke="#999" stroke-width="1.3" fill="none" stroke-dasharray="0 0" style=""></path></g></g><g class="node default" id="classId-Member-8" transform="translate(98.27342987060547, 310.25)"><g class="basic label-container"><path d="M-90.27342987060547 -76.5 L90.27342987060547 -76.5 L90.27342987060547 76.5 L-90.27342987060547 76.5" stroke="none" stroke-width="0" fill="#eee" style=""></path><path d="M-90.27342987060547 -76.5 C-48.47682371689082 -76.5, -6.680217563176171 -76.5, 90.27342987060547 -76.5 M-90.27342987060547 -76.5 C-28.309121148821525 -76.5, 33.65518757296242 -76.5, 90.27342987060547 -76.5 M90.27342987060547 -76.5 C90.27342987060547 -20.270454205286313, 90.27342987060547 35.95909158942737, 90.27342987060547 76.5 M90.27342987060547 -76.5 C90.27342987060547 -39.9890559893552, 90.27342987060547 -3.478111978710402, 90.27342987060547 76.5 M90.27342987060547 76.5 C40.01367988382034 76.5, -10.246070102964794 76.5, -90.27342987060547 76.5 M90.27342987060547 76.5 C21.474705932571368 76.5, -47.32401800546273 76.5, -90.27342987060547 76.5 M-90.27342987060547 76.5 C-90.27342987060547 24.65882574063437, -90.27342987060547 -27.18234851873126, -90.27342987060547 -76.5 M-90.27342987060547 76.5 C-90.27342987060547 24.00039744218968, -90.27342987060547 -28.49920511562064, -90.27342987060547 -76.5" stroke="#999" stroke-width="1.3" fill="none" stroke-dasharray="0 0" style=""></path></g><g class="annotation-group text" transform="translate(0, -56.5)"></g><g class="label-group text" transform="translate(-30.433578491210938, -56.5)"><g class="label" style="font-weight: bolder" transform="translate(0,-9.375)"><g><rect class="background" style="stroke: none"></rect><text y="-10.1" style=""><tspan class="text-outer-tspan" x="0" y="-0.1em" dy="1.1em" font-weight=""><tspan font-style="normal" class="text-inner-tspan" font-weight="">Member</tspan></tspan></text></g></g></g><g class="members-group text" transform="translate(-78.27342987060547, -13.75)"><g class="label" style="" transform="translate(0,-9.375)"><g><rect class="background" style="stroke: none"></rect><text y="-10.1" style=""><tspan class="text-outer-tspan" x="0" y="-0.1em" dy="1.1em"><tspan font-style="normal" class="text-inner-tspan" font-weight="normal">+string</tspan><tspan font-style="normal" class="text-inner-tspan" font-weight="normal"> memberId</tspan></tspan></text></g></g><g class="label" style="" transform="translate(0,12.375)"><g><rect class="background" style="stroke: none"></rect><text y="-10.1" style=""><tspan class="text-outer-tspan" x="0" y="-0.1em" dy="1.1em"><tspan font-style="normal" class="text-inner-tspan" font-weight="normal">+string</tspan><tspan font-style="normal" class="text-inner-tspan" font-weight="normal"> name</tspan></tspan></text></g></g><g class="label" style="" transform="translate(0,34.125)"><g><rect class="background" style="stroke: none"></rect><text y="-10.1" style=""><tspan class="text-outer-tspan" x="0" y="-0.1em" dy="1.1em"><tspan font-style="normal" class="text-inner-tspan" font-weight="normal">+int</tspan><tspan font-style="normal" class="text-inner-tspan" font-weight="normal"> maxLoans</tspan></tspan></text></g></g></g><g class="methods-group text" transform="translate(-78.27342987060547, 72.5)"></g><g class="divider" style=""><path d="M-90.27342987060547 -33.75 C-38.983829962674285 -33.75, 12.305769945256898 -33.75, 90.27342987060547 -33.75 M-90.27342987060547 -33.75 C-23.086253898814064 -33.75, 44.10092207297734 -33.75, 90.27342987060547 -33.75" stroke="#999" stroke-width="1.3" fill="none" stroke-dasharray="0 0" style=""></path></g><g class="divider" style=""><path d="M-90.27342987060547 52.5 C-32.48808278493534 52.5, 25.297264300734795 52.5, 90.27342987060547 52.5 M-90.27342987060547 52.5 C-22.87865731196652 52.5, 44.51611524667243 52.5, 90.27342987060547 52.5" stroke="#999" stroke-width="1.3" fill="none" stroke-dasharray="0 0" style=""></path></g></g><g class="node default" id="classId-Loan-9" transform="translate(528.0868453979492, 589.8125)"><g class="basic label-container"><path d="M-98.08586120605469 -130.31250762939453 L98.08586120605469 -130.31250762939453 L98.08586120605469 130.31250762939453 L-98.08586120605469 130.31250762939453" stroke="none" stroke-width="0" fill="#eee" style=""></path><path d="M-98.08586120605469 -130.31250762939453 C-33.12172580855359 -130.31250762939453, 31.842409588947504 -130.31250762939453, 98.08586120605469 -130.31250762939453 M-98.08586120605469 -130.31250762939453 C-55.98314096460958 -130.31250762939453, -13.880420723164477 -130.31250762939453, 98.08586120605469 -130.31250762939453 M98.08586120605469 -130.31250762939453 C98.08586120605469 -29.739208990937883, 98.08586120605469 70.83408964751877, 98.08586120605469 130.31250762939453 M98.08586120605469 -130.31250762939453 C98.08586120605469 -33.232759929965496, 98.08586120605469 63.84698776946354, 98.08586120605469 130.31250762939453 M98.08586120605469 130.31250762939453 C48.75450721427909 130.31250762939453, -0.5768467774965131 130.31250762939453, -98.08586120605469 130.31250762939453 M98.08586120605469 130.31250762939453 C28.924155817871906 130.31250762939453, -40.237549570310875 130.31250762939453, -98.08586120605469 130.31250762939453 M-98.08586120605469 130.31250762939453 C-98.08586120605469 72.28958156293727, -98.08586120605469 14.266655496480013, -98.08586120605469 -130.31250762939453 M-98.08586120605469 130.31250762939453 C-98.08586120605469 57.21085666724008, -98.08586120605469 -15.890794294914372, -98.08586120605469 -130.31250762939453" stroke="#999" stroke-width="1.3" fill="none" stroke-dasharray="0 0" style=""></path></g><g class="annotation-group text" transform="translate(0, -110.31250762939453)"></g><g class="label-group text" transform="translate(-18.210926055908203, -110.31250762939453)"><g class="label" style="font-weight: bolder" transform="translate(0,-9.375)"><g><rect class="background" style="stroke: none"></rect><text y="-10.1" style=""><tspan class="text-outer-tspan" x="0" y="-0.1em" dy="1.1em" font-weight=""><tspan font-style="normal" class="text-inner-tspan" font-weight="">Loan</tspan></tspan></text></g></g></g><g class="members-group text" transform="translate(-86.08586120605469, -67.56250762939453)"><g class="label" style="" transform="translate(0,-9.375)"><g><rect class="background" style="stroke: none"></rect><text y="-10.1" style=""><tspan class="text-outer-tspan" x="0" y="-0.1em" dy="1.1em"><tspan font-style="normal" class="text-inner-tspan" font-weight="normal">+string</tspan><tspan font-style="normal" class="text-inner-tspan" font-weight="normal"> loanId</tspan></tspan></text></g></g><g class="label" style="" transform="translate(0,12.375)"><g><rect class="background" style="stroke: none"></rect><text y="-10.1" style=""><tspan class="text-outer-tspan" x="0" y="-0.1em" dy="1.1em"><tspan font-style="normal" class="text-inner-tspan" font-weight="normal">+string</tspan><tspan font-style="normal" class="text-inner-tspan" font-weight="normal"> copyId</tspan></tspan></text></g></g><g class="label" style="" transform="translate(0,34.125)"><g><rect class="background" style="stroke: none"></rect><text y="-10.1" style=""><tspan class="text-outer-tspan" x="0" y="-0.1em" dy="1.1em"><tspan font-style="normal" class="text-inner-tspan" font-weight="normal">+string</tspan><tspan font-style="normal" class="text-inner-tspan" font-weight="normal"> memberId</tspan></tspan></text></g></g><g class="label" style="" transform="translate(0,55.875)"><g><rect class="background" style="stroke: none"></rect><text y="-10.1" style=""><tspan class="text-outer-tspan" x="0" y="-0.1em" dy="1.1em"><tspan font-style="normal" class="text-inner-tspan" font-weight="normal">+string</tspan><tspan font-style="normal" class="text-inner-tspan" font-weight="normal"> issueDate</tspan></tspan></text></g></g><g class="label" style="" transform="translate(0,77.625)"><g><rect class="background" style="stroke: none"></rect><text y="-10.1" style=""><tspan class="text-outer-tspan" x="0" y="-0.1em" dy="1.1em"><tspan font-style="normal" class="text-inner-tspan" font-weight="normal">+string</tspan><tspan font-style="normal" class="text-inner-tspan" font-weight="normal"> dueDate</tspan></tspan></text></g></g><g class="label" style="" transform="translate(0,99.375)"><g><rect class="background" style="stroke: none"></rect><text y="-10.1" style=""><tspan class="text-outer-tspan" x="0" y="-0.1em" dy="1.1em"><tspan font-style="normal" class="text-inner-tspan" font-weight="normal">+string</tspan><tspan font-style="normal" class="text-inner-tspan" font-weight="normal"> returnDate</tspan></tspan></text></g></g></g><g class="methods-group text" transform="translate(-86.08586120605469, 83.93749237060547)"><g class="label" style="" transform="translate(0,-10)"><g><rect class="background" style="stroke: none"></rect><text y="-10.1" style=""><tspan class="text-outer-tspan" x="0" y="-0.1em" dy="1.1em"><tspan font-style="normal" class="text-inner-tspan" font-weight="normal">+isActive()</tspan></tspan></text></g></g><g class="label" style="" transform="translate(0,13)"><g><rect class="background" style="stroke: none"></rect><text y="-10.1" style=""><tspan class="text-outer-tspan" x="0" y="-0.1em" dy="1.1em"><tspan font-style="normal" class="text-inner-tspan" font-weight="normal">+markReturned(date)</tspan></tspan></text></g></g></g><g class="divider" style=""><path d="M-98.08586120605469 -87.56250762939453 C-47.96857678873714 -87.56250762939453, 2.1487076285804108 -87.56250762939453, 98.08586120605469 -87.56250762939453 M-98.08586120605469 -87.56250762939453 C-41.493813728178985 -87.56250762939453, 15.098233749696718 -87.56250762939453, 98.08586120605469 -87.56250762939453" stroke="#999" stroke-width="1.3" fill="none" stroke-dasharray="0 0" style=""></path></g><g class="divider" style=""><path d="M-98.08586120605469 63.93749237060547 C-33.748088777572804 63.93749237060547, 30.58968365090908 63.93749237060547, 98.08586120605469 63.93749237060547 M-98.08586120605469 63.93749237060547 C-30.917310000932204 63.93749237060547, 36.25124120419028 63.93749237060547, 98.08586120605469 63.93749237060547" stroke="#999" stroke-width="1.3" fill="none" stroke-dasharray="0 0" style=""></path></g></g><g class="node default" id="classId-Catalog-10" transform="translate(690.8358154296875, 310.25)"><g class="basic label-container"><path d="M-99.73820495605469 -69.5625 L99.73820495605469 -69.5625 L99.73820495605469 69.5625 L-99.73820495605469 69.5625" stroke="none" stroke-width="0" fill="#eee" style=""></path><path d="M-99.73820495605469 -69.5625 C-45.70746665845523 -69.5625, 8.323271639144224 -69.5625, 99.73820495605469 -69.5625 M-99.73820495605469 -69.5625 C-35.37800846887188 -69.5625, 28.98218801831092 -69.5625, 99.73820495605469 -69.5625 M99.73820495605469 -69.5625 C99.73820495605469 -41.25515133678997, 99.73820495605469 -12.947802673579943, 99.73820495605469 69.5625 M99.73820495605469 -69.5625 C99.73820495605469 -40.398045519484, 99.73820495605469 -11.233591038968008, 99.73820495605469 69.5625 M99.73820495605469 69.5625 C37.65398978842031 69.5625, -24.430225379214065 69.5625, -99.73820495605469 69.5625 M99.73820495605469 69.5625 C36.85632092645404 69.5625, -26.02556310314661 69.5625, -99.73820495605469 69.5625 M-99.73820495605469 69.5625 C-99.73820495605469 36.217171351269805, -99.73820495605469 2.8718427025396096, -99.73820495605469 -69.5625 M-99.73820495605469 69.5625 C-99.73820495605469 23.82491737348017, -99.73820495605469 -21.912665253039663, -99.73820495605469 -69.5625" stroke="#999" stroke-width="1.3" fill="none" stroke-dasharray="0 0" style=""></path></g><g class="annotation-group text" transform="translate(0, -49.5625)"></g><g class="label-group text" transform="translate(-27.851533889770508, -49.5625)"><g class="label" style="font-weight: bolder" transform="translate(0,-9.375)"><g><rect class="background" style="stroke: none"></rect><text y="-10.1" style=""><tspan class="text-outer-tspan" x="0" y="-0.1em" dy="1.1em" font-weight=""><tspan font-style="normal" class="text-inner-tspan" font-weight="">Catalog</tspan></tspan></text></g></g></g><g class="members-group text" transform="translate(-87.73820495605469, -6.8125)"></g><g class="methods-group text" transform="translate(-87.73820495605469, 23.1875)"><g class="label" style="" transform="translate(0,-10)"><g><rect class="background" style="stroke: none"></rect><text y="-10.1" style=""><tspan class="text-outer-tspan" x="0" y="-0.1em" dy="1.1em"><tspan font-style="normal" class="text-inner-tspan" font-weight="normal">+searchByTitle(title)</tspan></tspan></text></g></g><g class="label" style="" transform="translate(0,13)"><g><rect class="background" style="stroke: none"></rect><text y="-10.1" style=""><tspan class="text-outer-tspan" x="0" y="-0.1em" dy="1.1em"><tspan font-style="normal" class="text-inner-tspan" font-weight="normal">+searchByIsbn(isbn)</tspan></tspan></text></g></g></g><g class="divider" style=""><path d="M-99.73820495605469 -26.8125 C-28.21834108247539 -26.8125, 43.301522791103906 -26.8125, 99.73820495605469 -26.8125 M-99.73820495605469 -26.8125 C-23.830273181497347 -26.8125, 52.077658593059994 -26.8125, 99.73820495605469 -26.8125" stroke="#999" stroke-width="1.3" fill="none" stroke-dasharray="0 0" style=""></path></g><g class="divider" style=""><path d="M-99.73820495605469 -2.8125 C-45.2512774016704 -2.8125, 9.235650152713887 -2.8125, 99.73820495605469 -2.8125 M-99.73820495605469 -2.8125 C-30.713617741607436 -2.8125, 38.310969472839815 -2.8125, 99.73820495605469 -2.8125" stroke="#999" stroke-width="1.3" fill="none" stroke-dasharray="0 0" style=""></path></g></g><g class="node default" id="classId-LibraryService-11" transform="translate(680.8358154296875, 84.5)"><g class="basic label-container"><path d="M-154.1659698486328 -69.5625 L154.1659698486328 -69.5625 L154.1659698486328 69.5625 L-154.1659698486328 69.5625" stroke="none" stroke-width="0" fill="#eee" style=""></path><path d="M-154.1659698486328 -69.5625 C-68.89544376355938 -69.5625, 16.375082321514043 -69.5625, 154.1659698486328 -69.5625 M-154.1659698486328 -69.5625 C-35.892484072122045 -69.5625, 82.38100170438872 -69.5625, 154.1659698486328 -69.5625 M154.1659698486328 -69.5625 C154.1659698486328 -14.95266916486468, 154.1659698486328 39.65716167027064, 154.1659698486328 69.5625 M154.1659698486328 -69.5625 C154.1659698486328 -21.931991454466853, 154.1659698486328 25.698517091066293, 154.1659698486328 69.5625 M154.1659698486328 69.5625 C60.940177097122245 69.5625, -32.28561565438832 69.5625, -154.1659698486328 69.5625 M154.1659698486328 69.5625 C53.17215720792359 69.5625, -47.82165543278563 69.5625, -154.1659698486328 69.5625 M-154.1659698486328 69.5625 C-154.1659698486328 38.35373422930431, -154.1659698486328 7.144968458608616, -154.1659698486328 -69.5625 M-154.1659698486328 69.5625 C-154.1659698486328 25.366026520645583, -154.1659698486328 -18.830446958708833, -154.1659698486328 -69.5625" stroke="#999" stroke-width="1.3" fill="none" stroke-dasharray="0 0" style=""></path></g><g class="annotation-group text" transform="translate(0, -49.5625)"></g><g class="label-group text" transform="translate(-54.63276672363281, -49.5625)"><g class="label" style="font-weight: bolder" transform="translate(0,-9.375)"><g><rect class="background" style="stroke: none"></rect><text y="-10.1" style=""><tspan class="text-outer-tspan" x="0" y="-0.1em" dy="1.1em" font-weight=""><tspan font-style="normal" class="text-inner-tspan" font-weight="">LibraryService</tspan></tspan></text></g></g></g><g class="members-group text" transform="translate(-142.1659698486328, -6.8125)"></g><g class="methods-group text" transform="translate(-142.1659698486328, 23.1875)"><g class="label" style="" transform="translate(0,-10)"><g><rect class="background" style="stroke: none"></rect><text y="-10.1" style=""><tspan class="text-outer-tspan" x="0" y="-0.1em" dy="1.1em"><tspan font-style="normal" class="text-inner-tspan" font-weight="normal">+issueBook(isbn,</tspan><tspan font-style="normal" class="text-inner-tspan" font-weight="normal"> memberId)</tspan></tspan></text></g></g><g class="label" style="" transform="translate(0,13)"><g><rect class="background" style="stroke: none"></rect><text y="-10.1" style=""><tspan class="text-outer-tspan" x="0" y="-0.1em" dy="1.1em"><tspan font-style="normal" class="text-inner-tspan" font-weight="normal">+returnBook(copyId,</tspan><tspan font-style="normal" class="text-inner-tspan" font-weight="normal"> memberId)</tspan></tspan></text></g></g></g><g class="divider" style=""><path d="M-154.1659698486328 -26.8125 C-35.50885445386055 -26.8125, 83.14826094091171 -26.8125, 154.1659698486328 -26.8125 M-154.1659698486328 -26.8125 C-48.73293798549082 -26.8125, 56.70009387765117 -26.8125, 154.1659698486328 -26.8125" stroke="#999" stroke-width="1.3" fill="none" stroke-dasharray="0 0" style=""></path></g><g class="divider" style=""><path d="M-154.1659698486328 -2.8125 C-78.11680762800349 -2.8125, -2.067645407374158 -2.8125, 154.1659698486328 -2.8125 M-154.1659698486328 -2.8125 C-36.75480670656761 -2.8125, 80.6563564354976 -2.8125, 154.1659698486328 -2.8125" stroke="#999" stroke-width="1.3" fill="none" stroke-dasharray="0 0" style=""></path></g></g></g></g></g></svg>